<svg xmlns:rdf="http://www.w3.org/1999/02/22-rdf-syntax-ns#" xmlns="http://www.w3.org/2000/svg" xmlns:cc="http://creativecommons.org/ns#" xmlns:dc="http://purl.org/dc/elements/1.1/" height="24" width="24" version="1.1" style=""><rect id="backgroundrect" width="100%" height="100%" x="0" y="0" fill="none" stroke="none"/>
 
<g class="currentLayer" style=""><title>Layer 1</title><g id="svg_1" class="selected" fill="#009900" fill-opacity="1">
  <path d="m12,0 c-4.4183,2.3685e-15 -8,3.5817 -8,8 c0,1.421 0.3816000000000001,2.75 1.0312000000000001,3.906 c0.10790000000000002,0.19200000000000006 0.22100000000000006,0.3810000000000001 0.3438000000000002,0.5630000000000002 l6.625,11.531 l6.625,-11.531 c0.10200000000000002,-0.15100000000000005 0.19000000000000006,-0.3110000000000001 0.281,-0.4690000000000001 l0.06300000000000003,-0.09400000000000006 c0.6490000000000002,-1.1560000000000001 1.031,-2.485 1.031,-3.906 c0,-4.4183 -3.582,-8 -8,-8 zm0,4 c2.209,0 4,1.7909000000000002 4,4 c0,2.209 -1.791,4 -4,4 c-2.2091,0 -4,-1.791 -4,-4 c0,-2.2091 1.7909000000000002,-4 4,-4 z" fill="#009900" id="svg_2" fill-opacity="1"/>
  <path d="m12,3 c-2.7614,0 -5,2.2386 -5,5 c0,2.761 2.2386,5 5,5 c2.761,0 5,-2.239 5,-5 c0,-2.7614 -2.239,-5 -5,-5 zm0,2 c1.657,0 3,1.3431000000000002 3,3 s-1.343,3 -3,3 s-3,-1.3431000000000002 -3,-3 s1.343,-3 3,-3 z" fill="#009900" id="svg_3" fill-opacity="1"/>
 </g></g></svg>